<?xml version="1.0" standalone="no"?>
<!DOCTYPE svg PUBLIC "-//W3C//DTD SVG 20010904//EN"
 "http://www.w3.org/TR/2001/REC-SVG-20010904/DTD/svg10.dtd">
<svg version="1.0" xmlns="http://www.w3.org/2000/svg"
 width="500.000000pt" height="500.000000pt" viewBox="0 0 500.000000 500.000000"
 preserveAspectRatio="xMidYMid meet">

<g transform="translate(0.000000,500.000000) scale(0.100000,-0.100000)"
fill="#000000" stroke="none">
<path d="M2358 4263 c-14 -3 -18 -15 -18 -49 0 -55 -17 -57 -37 -4 -14 34 -21
40 -45 40 -15 0 -28 -3 -28 -7 0 -4 18 -35 41 -69 23 -36 43 -80 46 -104 6
-40 16 -47 42 -31 9 6 12 19 7 42 -5 30 12 107 39 172 7 17 -7 21 -47 10z"/>
<path d="M2514 4247 c-23 -20 -28 -34 -32 -85 -4 -58 -3 -63 26 -92 83 -82
205 8 173 128 -19 69 -112 96 -167 49z m112 -42 c31 -47 2 -125 -46 -125 -33
0 -53 25 -53 69 0 74 64 110 99 56z"/>
<path d="M2744 4152 c-14 -47 -23 -94 -20 -106 11 -44 92 -71 130 -43 26 19
79 179 63 189 -26 17 -36 5 -62 -72 -23 -70 -30 -80 -50 -80 -13 0 -27 5 -30
10 -6 9 19 107 41 163 3 10 -4 16 -20 19 -24 5 -27 1 -52 -80z"/>
<path d="M1973 4159 c-62 -28 -71 -40 -54 -67 6 -10 10 -10 21 3 23 28 37 16
71 -65 34 -80 41 -88 68 -71 12 8 8 23 -24 91 -31 67 -35 84 -24 91 8 5 20 9
28 9 8 0 11 6 7 16 -3 9 -6 18 -6 20 0 9 -29 1 -87 -27z"/>
<path d="M2990 4148 c0 -7 -22 -52 -49 -101 -46 -81 -48 -88 -31 -97 10 -6 21
-10 23 -10 3 0 24 35 47 78 24 42 44 78 45 80 9 10 45 -26 45 -45 0 -25 -17
-33 -47 -22 -20 7 -23 4 -28 -29 -4 -20 -9 -49 -11 -64 -4 -20 0 -29 15 -37
28 -15 31 -14 31 12 0 41 12 67 31 67 26 0 59 39 59 70 0 28 -23 54 -81 88
-42 25 -49 27 -49 10z"/>
<path d="M1798 4060 c-61 -47 -57 -128 9 -201 39 -44 41 -44 67 -24 18 13 17
15 -9 38 l-27 23 28 18 c28 19 28 19 49 -8 18 -23 23 -25 40 -13 17 13 15 19
-42 98 -32 46 -66 85 -74 87 -9 1 -27 -6 -41 -18z m71 -90 c0 -3 -11 -13 -25
-24 -22 -15 -28 -16 -35 -5 -12 19 -11 46 2 71 11 20 12 20 35 -8 13 -16 23
-31 23 -34z"/>
<path d="M3207 3892 l-77 -78 40 -39 c33 -33 47 -40 80 -40 33 0 47 7 75 36
47 47 55 92 23 138 -48 71 -55 70 -141 -17z m113 -34 c0 -37 -42 -78 -82 -78
-47 0 -45 25 8 78 53 53 74 53 74 0z"/>
<path d="M2816 3854 c-37 -65 -53 -84 -65 -79 -76 30 -146 40 -271 40 -160 -1
-222 -15 -359 -82 -79 -39 -110 -62 -186 -137 -136 -134 -207 -271 -235 -452
-16 -100 -10 -239 10 -239 12 0 16 24 21 135 5 106 12 152 33 215 105 322 383
526 721 526 85 0 213 -21 244 -40 11 -7 -9 -50 -99 -208 -174 -304 -170 -299
-221 -307 -118 -19 -228 -140 -245 -271 -5 -36 -12 -49 -33 -60 -66 -34 -134
-133 -149 -215 -13 -78 3 -298 27 -359 35 -87 97 -169 167 -219 l64 -47 1 -65
c1 -36 1 -77 1 -92 l1 -28 233 0 234 0 0 90 0 89 53 34 c92 59 164 157 199
272 30 95 32 294 5 372 -20 56 -92 145 -137 168 -22 12 -28 23 -33 64 -7 62
-38 125 -85 173 l-36 38 25 27 c13 15 94 98 180 185 l156 158 19 -23 c66 -74
129 -194 154 -292 7 -27 16 -111 19 -185 5 -122 8 -135 25 -138 18 -4 19 2 13
134 -4 98 -12 161 -27 214 -24 85 -85 205 -136 267 -19 23 -34 45 -34 49 0 5
30 39 68 77 54 55 64 69 52 77 -12 8 -72 -48 -279 -255 -145 -146 -267 -265
-271 -265 -4 0 -24 7 -43 15 -20 8 -48 15 -62 15 -31 0 -31 14 -4 60 12 19 72
123 134 230 61 107 139 242 173 300 56 96 62 119 32 120 -3 0 -27 -39 -54 -86z
m-243 -670 c91 -31 187 -147 187 -228 0 -25 -3 -28 -22 -22 -13 3 -28 6 -33 6
-6 0 -16 20 -22 43 -15 54 -81 123 -131 137 -55 15 -112 12 -157 -9 -52 -23
-112 -91 -120 -134 -5 -24 -14 -37 -28 -41 -46 -12 -50 -9 -43 35 26 163 208
268 369 213z m5 -121 c34 -25 72 -80 72 -104 0 -32 -52 -25 -67 9 -31 69 -133
81 -185 22 -16 -16 -28 -36 -28 -43 0 -9 -10 -12 -30 -9 -19 3 -30 10 -30 21
0 28 49 90 88 111 48 26 140 23 180 -7z m-38 -101 c11 -13 20 -28 20 -32 0 -4
-18 -15 -40 -25 -37 -17 -41 -17 -75 -1 -39 19 -45 44 -17 68 36 33 82 29 112
-10z m-137 -77 c47 -20 51 -28 23 -54 -19 -18 -27 -20 -50 -11 -43 16 -127 11
-172 -9 -49 -22 -95 -76 -110 -128 -10 -34 -14 -38 -48 -41 -36 -3 -37 -2 -30
25 23 99 83 175 168 214 51 23 168 25 219 4z m377 -6 c80 -36 147 -120 163
-206 6 -32 6 -33 -28 -33 -32 0 -35 3 -45 40 -23 87 -110 150 -205 150 -95 0
-180 -62 -206 -150 -11 -37 -15 -40 -46 -40 -34 0 -34 1 -28 31 20 91 80 168
160 205 66 31 170 33 235 3z m-431 -90 c22 -8 30 -16 27 -26 -3 -8 -6 -18 -6
-23 0 -4 -22 -7 -48 -7 -57 2 -99 -21 -115 -64 -10 -25 -17 -29 -49 -29 -44 0
-43 -1 -23 47 21 50 42 72 90 94 46 21 79 23 124 8z m387 -8 c45 -21 88 -70
99 -113 7 -26 5 -28 -23 -28 -21 0 -33 6 -36 18 -10 31 -59 70 -96 77 -42 8
-97 -24 -118 -68 -10 -20 -20 -27 -43 -27 -34 0 -36 8 -10 58 23 45 46 66 91
86 47 20 87 19 136 -3z m-391 -111 c0 -23 -4 -25 -52 -28 -42 -2 -53 0 -53 12
0 23 41 47 75 44 25 -2 30 -8 30 -28z m375 3 l22 -28 -41 -3 c-23 -2 -58 -2
-79 0 l-37 3 27 28 c18 17 38 27 57 27 20 0 36 -9 51 -27z m230 -98 l0 -25
-470 0 -470 0 0 25 0 25 470 0 470 0 0 -25z m0 -90 c0 -102 -57 -229 -141
-313 -183 -183 -461 -186 -650 -6 -83 80 -126 169 -144 297 l-6 47 470 0 471
0 0 -25z m-606 -470 c27 -8 88 -15 136 -15 48 0 109 7 136 15 27 8 52 15 57
15 4 0 7 -27 7 -60 l0 -60 -200 0 -200 0 0 60 c0 33 3 60 8 60 4 0 29 -7 56
-15z"/>
<path d="M1500 3771 c-9 -17 1 -28 73 -85 45 -36 85 -66 89 -66 3 0 27 26 52
57 40 51 43 58 28 69 -18 14 -17 15 -61 -45 l-18 -24 -71 56 c-39 32 -73 57
-76 57 -3 0 -10 -9 -16 -19z"/>
<path d="M3397 3746 c-49 -18 -67 -34 -84 -75 -13 -30 -13 -38 2 -71 27 -59
87 -85 138 -59 69 35 99 96 74 146 -32 60 -73 79 -130 59z m77 -52 c25 -25 19
-59 -15 -88 -38 -32 -84 -34 -99 -5 -17 31 -4 67 33 89 39 24 60 25 81 4z"/>
<path d="M1432 3667 c-58 -69 -16 -165 87 -202 56 -19 56 -19 69 9 10 22 8 24
-24 30 -39 8 -38 6 -22 41 13 29 20 31 53 9 22 -14 24 -14 34 5 6 11 11 22 11
25 0 7 -176 96 -189 96 -5 0 -13 -6 -19 -13z m61 -58 c31 -16 30 -15 16 -41
-17 -33 -17 -33 -39 -13 -21 19 -28 65 -9 65 6 0 20 -5 32 -11z"/>
<path d="M3535 3515 c-5 -2 -22 -6 -36 -9 -14 -3 -38 -18 -52 -32 -61 -61 -17
-174 68 -174 66 0 135 55 135 107 0 27 -22 74 -42 90 -15 12 -58 22 -73 18z
m55 -65 c25 -25 25 -41 2 -70 -23 -29 -102 -40 -121 -17 -23 28 -10 70 29 89
45 23 65 23 90 -2z"/>
<path d="M1336 3451 c-10 -11 -20 -37 -23 -59 -14 -105 110 -174 188 -104 26
23 33 38 37 80 4 48 3 52 -17 52 -17 0 -21 -6 -21 -35 0 -71 -76 -100 -127
-49 -20 20 -24 31 -19 57 3 18 14 38 24 45 15 11 15 14 2 22 -21 13 -25 13
-44 -9z"/>
<path d="M1400 3401 c-8 -16 -8 -28 2 -48 14 -29 42 -46 32 -19 -3 8 1 29 9
46 9 16 12 30 7 30 -5 0 -15 3 -23 6 -10 3 -20 -3 -27 -15z"/>
<path d="M3625 3258 c-33 -4 -83 -10 -111 -13 -48 -6 -51 -8 -46 -31 4 -23 9
-25 36 -20 17 3 59 8 94 12 l63 7 -3 -34 c-2 -29 -7 -34 -28 -34 -20 0 -26 6
-28 27 l-3 26 -60 -26 c-55 -24 -59 -27 -59 -59 l0 -34 37 26 c45 30 48 30 73
5 27 -27 56 -25 85 5 26 25 30 51 17 115 l-7 35 -60 -7z"/>
<path d="M1270 3189 c0 -21 9 -30 51 -49 28 -13 52 -27 55 -31 2 -4 -23 -18
-56 -30 -53 -19 -60 -25 -60 -48 l0 -27 98 -2 c53 -2 105 -5 115 -8 13 -4 17
1 17 25 l0 30 -67 3 -68 3 58 19 c31 11 57 22 57 26 0 3 -24 18 -52 33 l-53
27 62 -3 c58 -2 63 0 68 22 3 13 5 25 3 26 -2 2 -54 5 -115 7 l-113 3 0 -26z"/>
<path d="M1610 2799 c-36 -11 -76 -23 -90 -27 -14 -4 -25 -12 -25 -17 0 -19
62 -16 121 4 73 26 120 26 179 1 56 -24 125 -27 125 -5 0 8 -12 17 -27 20 -16
3 -59 15 -98 26 -86 24 -103 23 -185 -2z"/>
<path d="M3160 2800 c-36 -11 -77 -22 -92 -25 -16 -3 -28 -12 -28 -20 0 -22
59 -19 120 5 28 11 68 20 90 20 22 0 62 -9 90 -20 61 -24 120 -27 120 -5 0 8
-12 17 -27 20 -16 4 -56 15 -91 26 -76 23 -98 23 -182 -1z"/>
<path d="M1620 2693 c-19 -9 -51 -19 -70 -22 -21 -4 -35 -12 -35 -21 0 -24 33
-24 97 0 33 12 79 22 103 22 24 0 70 -10 103 -22 64 -23 97 -24 97 0 0 9 -15
17 -40 21 -22 4 -57 15 -77 23 -47 20 -132 19 -178 -1z"/>
<path d="M3170 2694 c-19 -9 -53 -19 -75 -23 -25 -4 -40 -12 -40 -21 0 -23 37
-23 101 -1 74 27 139 27 205 1 58 -23 94 -23 94 0 0 9 -13 17 -35 21 -19 3
-52 13 -74 22 -48 21 -130 21 -176 1z"/>
<path d="M1600 2580 c-25 -11 -57 -19 -72 -19 -18 -1 -28 -6 -28 -16 0 -26 22
-26 109 0 101 30 106 30 178 6 82 -28 126 -31 131 -8 3 13 -3 17 -30 17 -18 0
-53 9 -77 20 -55 25 -149 25 -211 0z"/>
<path d="M3145 2579 c-22 -10 -55 -19 -73 -19 -26 0 -33 -4 -30 -17 5 -23 49
-20 131 8 71 24 93 24 159 0 75 -28 121 -31 126 -8 3 13 -3 17 -26 17 -17 0
-51 9 -77 20 -60 26 -155 26 -210 -1z"/>
<path d="M1697 2464 c-11 -11 -8 -143 4 -230 25 -184 102 -338 229 -464 154
-151 333 -224 550 -224 351 -1 639 209 751 546 27 80 32 113 36 229 4 103 3
138 -7 144 -22 14 -30 -18 -30 -123 0 -181 -50 -330 -155 -468 -94 -122 -220
-211 -370 -261 -72 -24 -95 -27 -225 -27 -133 0 -152 2 -224 27 -158 56 -278
141 -374 269 -102 136 -142 253 -151 452 -6 120 -14 150 -34 130z"/>
<path d="M1329 2387 c-19 -12 -44 -42 -56 -67 -23 -45 -23 -46 -14 -355 9
-342 10 -351 74 -399 57 -44 135 -34 185 23 40 46 43 81 34 397 -10 332 -12
345 -79 397 -45 34 -97 36 -144 4z m115 -83 c29 -11 19 -34 -13 -28 -17 4 -32
1 -36 -6 -5 -9 -2 -10 13 -6 16 5 24 0 36 -25 20 -39 14 -49 -29 -49 -38 0
-55 20 -55 64 0 43 40 67 84 50z m1 -194 c0 -10 -8 -14 -22 -12 -31 4 -29 -14
2 -22 29 -7 35 -50 9 -60 -24 -9 -62 -7 -69 4 -11 18 5 31 24 20 10 -5 21 -6
25 -3 3 4 -7 12 -24 19 -53 23 -30 77 30 71 14 -1 25 -8 25 -17z m5 -180 c0
-13 -5 -18 -15 -14 -12 5 -15 -3 -15 -40 0 -34 -4 -46 -15 -46 -11 0 -15 12
-15 45 0 33 -4 45 -15 45 -8 0 -15 7 -15 15 0 11 12 15 45 15 38 0 45 -3 45
-20z m-22 -176 c24 -16 29 -53 12 -85 -8 -13 -21 -19 -45 -19 l-35 0 0 60 c0
56 2 60 23 60 12 0 33 -7 45 -16z"/>
<path d="M1400 2231 c0 -12 28 -22 35 -12 3 5 -2 12 -11 15 -21 8 -24 8 -24
-3z"/>
<path d="M1390 1710 c0 -30 13 -40 25 -20 8 13 -4 50 -16 50 -5 0 -9 -13 -9
-30z"/>
<path d="M3500 2388 c-18 -13 -43 -36 -54 -51 -20 -27 -21 -42 -24 -348 -3
-300 -2 -322 17 -364 49 -111 195 -114 251 -5 20 39 21 53 18 365 -3 310 -4
325 -24 352 -31 41 -82 73 -119 73 -18 0 -47 -10 -65 -22z m98 -90 c17 -17 15
-38 -5 -60 -15 -17 -15 -18 0 -18 10 0 17 -7 17 -15 0 -11 -12 -15 -45 -15
-55 0 -59 17 -13 54 34 26 32 49 -3 28 -16 -10 -20 -10 -26 4 -11 29 50 47 75
22z m10 -200 c25 -53 -31 -113 -74 -78 -20 18 -18 86 4 99 27 17 56 8 70 -21z
m-10 -160 c19 -19 14 -45 -10 -62 l-22 -16 22 0 c13 0 22 -6 22 -15 0 -11 -12
-15 -45 -15 -38 0 -45 3 -45 20 0 12 12 26 30 35 17 9 30 20 30 25 0 14 -27
13 -36 -1 -4 -7 -9 -8 -17 0 -7 7 -6 15 3 26 15 18 51 20 68 3z m11 -202 c12
-26 12 -33 0 -55 -16 -29 -53 -39 -75 -21 -7 7 -14 27 -14 46 0 65 62 86 89
30z"/>
<path d="M3557 2093 c-13 -13 -7 -53 8 -53 10 0 15 10 15 30 0 29 -9 38 -23
23z"/>
<path d="M3554 1726 c-8 -20 -1 -47 11 -49 6 -1 11 13 13 31 3 32 -14 45 -24
18z"/>
<path d="M1610 1367 c-14 -7 -26 -21 -28 -30 -5 -23 22 -53 54 -61 31 -8 32
-36 1 -36 -13 0 -28 5 -34 11 -8 8 -13 7 -18 -2 -10 -15 21 -39 50 -39 11 0
31 7 43 16 34 23 25 55 -20 77 -21 10 -38 22 -38 27 0 14 31 20 50 10 13 -7
19 -6 24 6 4 10 -3 18 -20 24 -32 12 -34 12 -64 -3z"/>
<path d="M2126 1357 c-51 -51 -19 -147 49 -147 38 0 75 42 75 83 0 44 -26 75
-67 83 -26 5 -37 1 -57 -19z m80 -32 c24 -37 7 -80 -32 -80 -39 0 -55 41 -30
79 21 33 41 33 62 1z"/>
<path d="M2368 1373 c-16 -4 -15 -9 7 -53 14 -27 25 -63 25 -80 0 -20 5 -30
15 -30 10 0 15 10 15 30 0 17 11 53 25 80 l25 50 -24 0 c-18 0 -25 -7 -30 -31
-7 -34 -26 -30 -26 6 0 27 -7 33 -32 28z"/>
<path d="M2553 1368 c-29 -14 -46 -70 -32 -106 19 -50 73 -67 117 -36 29 20
32 102 5 127 -25 22 -64 28 -90 15z m66 -32 c17 -20 10 -77 -11 -90 -26 -16
-52 4 -56 43 -4 36 12 61 38 61 10 0 23 -6 29 -14z"/>
<path d="M3090 1362 c-33 -27 -21 -67 25 -82 19 -6 35 -16 35 -21 0 -16 -32
-23 -51 -11 -25 16 -38 -7 -14 -25 25 -17 55 -17 83 3 33 23 25 55 -18 76 -45
23 -46 44 -3 41 41 -4 52 14 18 27 -37 14 -50 13 -75 -8z"/>
<path d="M3410 1367 c-32 -16 -52 -59 -44 -92 12 -50 83 -81 124 -55 22 13 4
25 -35 21 -25 -2 -36 3 -44 18 -28 51 1 97 56 86 40 -7 45 11 7 25 -32 12 -34
12 -64 -3z"/>
<path d="M3680 1371 c0 -5 7 -14 15 -21 13 -10 15 -9 15 9 0 12 -6 21 -15 21
-8 0 -15 -4 -15 -9z"/>
<path d="M3726 1371 c-3 -5 1 -14 9 -21 13 -10 15 -9 15 9 0 21 -14 28 -24 12z"/>
<path d="M1250 1350 c0 -13 5 -18 15 -14 12 5 13 10 4 20 -15 19 -19 18 -19
-6z"/>
<path d="M1292 1354 c3 -17 21 -21 26 -6 1 5 -4 12 -13 16 -11 4 -15 1 -13
-10z"/>
<path d="M1355 1290 l0 -80 32 0 c71 0 109 74 69 134 -13 21 -24 26 -59 26
l-42 0 0 -80z m66 50 c35 -19 21 -100 -18 -100 -9 0 -13 17 -13 55 0 59 1 60
31 45z"/>
<path d="M1510 1290 c0 -70 2 -80 18 -80 15 0 17 9 14 80 -3 61 -7 80 -18 80
-11 0 -14 -17 -14 -80z"/>
<path d="M1735 1290 c0 -69 2 -80 18 -80 13 0 17 8 17 35 0 31 3 35 25 35 22
0 25 -4 25 -35 0 -24 5 -35 15 -35 12 0 15 16 15 80 0 64 -3 80 -15 80 -10 0
-15 -10 -15 -30 0 -25 -4 -30 -25 -30 -21 0 -25 5 -25 30 0 22 -5 30 -18 30
-15 0 -18 -10 -17 -80z"/>
<path d="M1950 1356 c0 -9 7 -12 20 -9 19 5 20 0 20 -66 0 -64 2 -71 20 -71
18 0 20 7 20 71 0 66 1 71 20 66 13 -3 20 0 20 9 0 10 -15 14 -60 14 -45 0
-60 -4 -60 -14z"/>
<path d="M2700 1307 c0 -71 17 -97 62 -97 41 0 58 29 58 98 0 55 -2 62 -20 62
-18 0 -20 -7 -20 -60 0 -45 -4 -62 -15 -67 -24 -9 -30 4 -30 68 0 49 -3 59
-17 59 -15 0 -18 -10 -18 -63z"/>
<path d="M2850 1290 c0 -73 2 -80 20 -80 17 0 20 7 21 43 l0 42 17 -42 c11
-29 22 -43 34 -43 21 0 21 1 6 34 -9 21 -8 29 5 44 38 42 9 82 -59 82 l-44 0
0 -80z m85 35 c0 -13 -8 -21 -22 -23 -19 -3 -23 1 -23 23 0 22 4 26 23 23 14
-2 22 -10 22 -23z"/>
<path d="M3220 1356 c0 -9 7 -12 20 -9 19 5 20 0 20 -66 0 -55 3 -71 15 -71
11 0 15 16 17 68 3 61 5 67 26 70 46 7 20 22 -38 22 -45 0 -60 -4 -60 -14z"/>
<path d="M3530 1290 c0 -70 2 -80 18 -80 15 0 17 9 15 71 -3 67 -2 70 19 67
11 -2 26 -11 32 -21 9 -15 7 -22 -11 -37 -28 -22 -29 -30 -5 -30 24 0 52 31
52 57 0 31 -32 53 -78 53 l-42 0 0 -80z"/>
<path d="M3426 1305 c-22 -22 -21 -24 14 -23 22 1 30 5 28 16 -4 22 -23 25
-42 7z"/>
<path d="M1420 881 c-30 -30 -38 -55 -21 -66 5 -3 12 4 16 14 7 24 61 71 81
71 18 0 18 -28 0 -72 -11 -26 -24 -38 -55 -48 -22 -7 -48 -21 -57 -31 -21 -23
-14 -53 12 -57 28 -4 110 87 126 140 15 50 3 72 -41 76 -24 3 -38 -4 -61 -27z
m23 -136 c-19 -26 -50 -41 -61 -30 -9 9 45 55 64 55 12 0 12 -4 -3 -25z"/>
<path d="M2463 900 c-24 -10 -43 -39 -36 -57 3 -8 14 -1 30 17 46 55 55 36 18
-39 -38 -75 -41 -86 -25 -96 6 -4 15 7 21 24 l11 30 25 -29 c14 -17 32 -30 41
-30 13 0 10 6 -10 27 l-27 27 37 21 c21 12 41 33 47 49 8 24 6 31 -14 47 -25
20 -80 24 -118 9z m101 -6 c21 -8 20 -47 -1 -66 -25 -21 -64 -41 -70 -35 -4 5
48 107 54 107 1 0 8 -3 17 -6z"/>
<path d="M2849 869 c-15 -15 -24 -30 -21 -33 2 -3 -3 -17 -12 -30 -9 -14 -16
-37 -16 -51 0 -20 5 -25 24 -25 13 0 29 7 36 15 11 14 15 13 27 -5 16 -23 34
-15 55 24 11 21 11 21 -11 2 -19 -18 -21 -18 -21 -2 0 29 39 76 63 76 17 0 19
2 8 9 -21 14 -58 -8 -82 -46 -23 -37 -66 -70 -76 -59 -12 12 36 96 54 96 12 0
14 3 6 8 -8 5 -9 13 -3 22 25 39 5 38 -31 -1z"/>
<path d="M3592 876 c-11 -15 -25 -26 -32 -26 -6 0 -8 -5 -5 -11 8 -12 -40 -89
-55 -89 -14 0 -12 14 7 55 19 39 14 50 -18 40 -15 -5 -18 -9 -9 -15 10 -6 9
-13 -4 -31 -32 -46 -13 -83 29 -55 20 13 24 13 29 1 9 -25 40 -17 72 17 l29
32 -35 -29 c-34 -27 -35 -27 -38 -7 -4 29 25 82 46 83 10 0 12 3 5 6 -10 3
-10 10 -2 25 16 30 4 32 -19 4z"/>
<path d="M2745 843 c-10 -14 -12 -22 -6 -19 7 5 11 -2 11 -17 0 -29 -7 -37
-26 -30 -12 4 -12 9 -2 22 7 9 -6 -1 -28 -21 -36 -34 -74 -50 -74 -30 0 4 16
20 35 35 34 27 45 59 25 72 -17 11 -56 -20 -74 -58 -28 -61 3 -91 59 -58 32
19 33 19 53 -1 24 -24 52 -18 52 11 0 11 6 22 13 24 10 4 10 6 0 6 -15 1 -17
35 -3 61 16 30 -16 33 -35 3z m-65 -9 c0 -14 -23 -45 -41 -55 -19 -10 -20 -9
-8 13 6 13 16 29 22 36 10 12 27 17 27 6z m59 -73 c10 -6 10 -10 1 -16 -7 -4
-19 0 -28 9 -14 13 -14 16 -2 16 8 0 21 -4 29 -9z"/>
<path d="M3197 863 c-11 -10 -8 -35 2 -28 18 10 22 -15 7 -37 -17 -25 -21 -64
-7 -72 5 -3 20 4 35 15 20 16 26 17 26 6 0 -8 6 -17 14 -20 14 -6 24 2 41 33
8 13 7 13 -8 1 -23 -19 -31 -8 -17 21 20 38 42 58 64 58 19 1 19 2 4 11 -25
14 -49 -2 -92 -61 -20 -27 -40 -50 -46 -50 -13 0 -13 3 7 46 16 33 16 36 1 45
-10 5 -15 16 -12 24 6 15 -7 21 -19 8z"/>
<path d="M1564 824 c-35 -36 -46 -86 -22 -100 10 -7 16 -1 53 51 14 19 14 19
12 -5 -2 -20 2 -25 21 -24 26 1 25 3 12 -31 -20 -52 2 -46 27 7 13 29 34 64
46 78 13 14 15 19 5 11 -22 -17 -23 -3 -2 27 8 12 10 22 5 22 -6 0 -21 -17
-35 -38 -26 -41 -54 -68 -62 -59 -3 3 -1 15 6 26 18 34 -15 27 -42 -9 -26 -35
-42 -39 -33 -7 11 35 47 69 68 63 15 -4 16 -2 6 10 -17 21 -28 17 -65 -22z"/>
<path d="M1823 824 c-26 -28 -33 -44 -31 -67 4 -40 21 -44 43 -10 l18 28 -21
-19 c-27 -23 -29 -8 -6 40 17 35 45 51 66 38 9 -6 9 -3 -1 9 -19 24 -29 21
-68 -19z"/>
<path d="M2075 805 c-30 -33 -57 -57 -59 -54 -3 3 3 23 14 44 12 23 16 43 11
48 -11 11 -42 -5 -62 -30 -13 -17 -13 -17 7 0 30 25 37 21 19 -13 -27 -53 -13
-84 27 -58 19 13 24 12 39 -3 19 -19 51 -16 70 7 9 11 16 10 40 -8 36 -27 52
-15 55 39 2 19 5 46 8 59 5 17 2 24 -8 24 -17 0 -41 -27 -27 -32 5 -1 7 -15 4
-30 -4 -22 -9 -26 -22 -19 -11 6 -25 2 -46 -15 -27 -22 -65 -32 -65 -18 0 3
14 17 30 31 43 36 53 58 34 74 -13 10 -23 3 -69 -46z m66 17 c-14 -25 -51 -57
-51 -43 0 20 31 61 47 61 10 0 11 -5 4 -18z m64 -63 c4 -6 5 -12 2 -15 -7 -7
-37 7 -37 17 0 13 27 11 35 -2z"/>
<path d="M2290 819 c-39 -43 -43 -72 -11 -88 24 -13 69 11 101 54 8 11 -2 5
-23 -12 -49 -42 -68 -43 -63 -3 3 30 31 70 48 70 16 0 8 -21 -18 -45 -15 -14
-23 -25 -17 -25 15 0 53 44 53 62 0 34 -32 28 -70 -13z"/>
<path d="M1734 838 c-5 -8 -2 -9 9 -5 10 4 17 1 17 -6 0 -22 -40 -78 -62 -86
-17 -6 -18 -9 -5 -14 34 -13 98 70 83 108 -6 18 -32 20 -42 3z"/>
<path d="M1936 812 c-26 -42 -44 -58 -52 -49 -3 3 -1 15 6 26 8 17 8 21 -3 21
-8 0 -21 -8 -28 -17 -12 -14 -12 -15 0 -9 10 6 12 4 7 -10 -3 -11 -1 -25 3
-33 8 -12 12 -12 25 -2 11 9 16 10 16 2 0 -15 30 -14 32 2 0 6 2 17 2 22 1 6
8 25 15 43 20 48 6 50 -23 4z"/>
<path d="M3032 808 c-31 -45 -31 -47 -14 -68 l18 -23 33 39 c21 25 31 32 27
19 -3 -11 -1 -27 4 -35 8 -12 15 -9 42 20 28 29 28 30 4 10 l-29 -25 6 30 c3
17 8 40 12 53 13 39 -12 24 -45 -28 -44 -68 -70 -67 -34 1 26 51 10 56 -24 7z"/>
<path d="M3410 813 c-26 -45 -32 -70 -19 -79 13 -8 38 26 32 43 -3 7 2 24 11
38 18 28 20 35 7 35 -5 0 -19 -17 -31 -37z"/>
<path d="M2959 803 c-3 -19 3 -59 10 -66 4 -4 14 -1 21 8 10 12 10 15 0 15 -8
0 -10 8 -6 25 5 18 2 25 -9 25 -8 0 -15 -3 -16 -7z"/>
<path d="M3329 793 c-10 -11 -10 -14 -1 -9 8 5 12 0 12 -18 0 -31 14 -41 30
-21 10 12 10 15 0 15 -8 0 -10 8 -6 25 8 30 -14 35 -35 8z"/>
</g>
</svg>
